# xmcd CD database file
#
# Track frame offsets:
#	150
#	13735
#	28475
#	42552
#	54881
#	68116
#	81785
#	94527
#	106514
#	123197
#	137179
#	152096
#	165079
#	176748
#	193120
#	219204
#	235771
#	248518
#	269463
#
# Disc length: 3891 seconds
#
# Revision: 0
# Processed by: cddbd v1.5.2PL0 Copyright (c) Steve Scherf et al.
# Submitted via: CDex 1.51
#
DISCID=f30f3113
DTITLE=Benny Carter - JAZZ BASICS
DYEAR=1900
DGENRE=Jazz
TTITLE0=Dee Blues
TTITLE1=Swing It
TTITLE2=Symphony In Riffs
TTITLE3=Liza
TTITLE4=Waltzing The Blues
TTITLE5=Crazy Rhythm
TTITLE6=I'm In The Mood For Swing
TTITLE7=Smack
TTITLE8=Isn't It Romantic
TTITLE9=Long Ago
TTITLE10='Round About Midnight
TTITLE11=I Get A Kick Out Of You
TTITLE12=With A Song In My Heart
TTITLE13=Our Love Is Here To Stay
TTITLE14=Blues In B Flat
TTITLE15=A Foggy Day
TTITLE16=Poinciana
TTITLE17=Frenesi
TTITLE18=Blue Lou
EXTD=
EXTT0=
EXTT1=
EXTT2=
EXTT3=
EXTT4=
EXTT5=
EXTT6=
EXTT7=
EXTT8=
EXTT9=
EXTT10=
EXTT11=
EXTT12=
EXTT13=
EXTT14=
EXTT15=
EXTT16=
EXTT17=
EXTT18=
PLAYORDER=
